<?xml version="1.0" encoding="UTF-8"?><svg id="Layer_1" xmlns="http://www.w3.org/2000/svg" viewBox="0 0 360 360"><path d="M116.45,242.2h-.12v19.41c1.16-.13,2.33-.23,3.52-.23h120.37c1.17,0,2.32.09,3.46.22v-19.4h-127.22Z"/><path d="M240.22,267.1h-120.37c-11.51,0-21.43,7.86-23.08,18.29l-.85,5.4h168.19l-.79-5.25c-1.58-10.51-11.51-18.44-23.1-18.44Z"/><path d="M182.86,126.24v92.71h26.72c6.38-11.18,18.82-33.55,32.13-60.46,4.41-8.91,4.94-16.03,1.58-21.15-8.04-12.26-35.29-11.07-35.56-11.06v-.04h-24.87Z"/><path d="M116.71,137.34c-3.36,5.12-2.83,12.24,1.58,21.15,13.31,26.91,25.76,49.28,32.13,60.46h26.72v-92.71h-24.87v.04c-.28-.01-27.53-1.2-35.56,11.06Z"/><path d="M143.85,218.95c-6.77-11.96-18.36-33.01-30.68-57.93-5.37-10.86-5.79-19.89-1.23-26.83,2.26-3.44,5.57-6.02,9.32-7.96h-18.81c-7.2,0-13.84,3.41-18.7,9.61-6.06,7.72-8.2,18.32-5.75,28.36,1.13,4.63,3.23,8.91,6.08,12.4l34.59,42.34h25.18Z"/><path d="M276.28,135.89c-4.87-6.22-11.52-9.65-18.73-9.65h-18.8c3.76,1.94,7.06,4.51,9.32,7.96,4.55,6.94,4.14,15.97-1.23,26.83-12.32,24.91-23.92,45.97-30.68,57.93h25.66l34.21-42.41c2.77-3.43,4.82-7.64,5.94-12.16,2.51-10.12.38-20.75-5.68-28.49Z"/><path d="M173.9,107.5v13.02h12.2v-13.02c0-4.55,3.7-8.26,8.26-8.26h8.33v-12.2h-8.33c-4.55,0-8.26-3.7-8.26-8.26v-9.57h-12.2v9.57c0,4.55-3.71,8.26-8.26,8.26h-8.33v12.2h8.33c4.55,0,8.26,3.7,8.26,8.26Z"/><path d="M116.45,224.67h127.1c3.17,0,5.74,2.57,5.74,5.74v.35c0,3.16-2.57,5.73-5.73,5.73h-127.1c-3.17,0-5.73-2.57-5.73-5.73v-.35c0-3.17,2.57-5.74,5.74-5.74Z"/></svg>