<?xml version="1.0" encoding="UTF-8"?><svg id="Layer_1" xmlns="http://www.w3.org/2000/svg" viewBox="0 0 360 360"><polygon points="214.28 239.61 197.73 173.56 162.26 173.56 145.71 239.61 214.28 239.61"/><path d="M149.93,119.5c0,17.13,13.93,31.06,31.06,31.06s31.06-13.93,31.06-31.06-13.93-31.06-31.06-31.06-31.06,13.93-31.06,31.06Z"/><path d="M234.46,265.51c-1.05-11.42-7.29-20.03-14.52-20.03h-79.86c-7.18,0-13.41,8.54-14.5,19.87l-.6,6.22h110.04l-.56-6.05Z"/><path d="M207.43,167.7c3.11,0,5.64-2.53,5.64-5.64s-2.53-5.64-5.64-5.64h-52.86c-3.11,0-5.64,2.53-5.64,5.64s2.53,5.64,5.64,5.64h52.86Z"/></svg>