<?xml version="1.0" encoding="UTF-8"?><svg id="Layer_1" xmlns="http://www.w3.org/2000/svg" viewBox="0 0 360 360"><defs><style>.cls-1{fill:#fff;}</style></defs><path class="cls-1" d="M133.71,262.39c-8.06,6.74-15.52,7.66-24.2,3.01-7.34-3.94-10.89-10.79-10.27-19.8.79-11.38,9.46-23.39,11.93-26.59l-.26-11.21-10.15,2.3c-2.94,3.68-14.06,18.53-15.17,34.56-1,14.36,5.36,26.32,17.44,32.8,13.56,7.28,27.15,5.7,39.44-4.57,8.03-6.71,12.36-15.11,14.69-22.04h-14.73c-1.86,3.95-4.62,8.11-8.73,11.55Z"/><path class="cls-1" d="M259.23,210.09l-10.15-2.3-.26,11.21c2.47,3.21,11.14,15.21,11.93,26.59.63,9.01-2.93,15.86-10.27,19.8-8.68,4.65-16.14,3.73-24.2-3.01-4.11-3.44-6.87-7.6-8.73-11.55h-14.73c2.34,6.94,6.66,15.34,14.69,22.04,12.28,10.26,25.88,11.84,39.44,4.57,12.08-6.48,18.44-18.44,17.44-32.8-1.11-16.02-12.22-30.88-15.17-34.56Z"/><path d="M279.86,244.27c-1.33-19.16-15.4-36.48-17-38.39l-.59-.71-18.49-4.19-.46,19.9.65.79c2.73,3.29,10.67,14.82,11.33,24.3.48,6.9-1.94,11.68-7.39,14.6-6.68,3.59-11.76,2.92-18.11-2.39-2.62-2.19-4.59-4.76-6.07-7.35h22.32l-1.35-9.75c-1.03-7.45-5.88-13.6-12.38-16.61,1.92-2.01,3.1-4.72,3.1-7.71,0-4.99-3.29-9.23-7.81-10.66,10.07-10.63,15.43-21.99,15.53-33.1.11-11.53-5.31-22.58-16.08-32.85l-8.52-8.11-1.98-1.89-1.97-1.89-1.98,1.87-1.98,1.9-38.86,37.03c-2.28,2.17-5.91,2.08-8.08-.21-2.17-2.27-2.08-5.9.21-8.07l38.45-36.64,1.98-1.9,1.98-1.87-1.98-1.9-1.98-1.89-15.07-14.36h0c5.03-2.63,8.49-7.89,8.49-13.95,0-8.67-7.05-15.72-15.72-15.72s-15.72,7.05-15.72,15.72c0,6.06,3.45,11.32,8.49,13.94h0s-39.82,37.93-39.82,37.93c-10.78,10.27-16.18,21.32-16.08,32.85.11,11.11,5.46,22.46,15.54,33.1-4.52,1.43-7.81,5.67-7.81,10.66,0,3,1.19,5.72,3.12,7.73-6.44,3-11.26,9.08-12.33,16.44l-1.44,9.9h22.34c-1.49,2.59-3.46,5.16-6.07,7.35-6.35,5.3-11.42,5.98-18.11,2.39-5.45-2.93-7.87-7.7-7.39-14.6.66-9.48,8.6-21.01,11.33-24.3l.65-.79-.46-19.9-18.49,4.19-.59.71c-1.6,1.91-15.68,19.24-17,38.39-1.15,16.6,6.26,30.45,20.32,38,6.4,3.43,12.89,5.17,19.32,5.17,9.17,0,17.99-3.49,26.21-10.36,9.6-8.02,14.45-18.23,16.9-26.24h34.22c2.45,8.02,7.29,18.22,16.9,26.24,8.23,6.87,17.05,10.36,26.21,10.36,6.42,0,12.92-1.74,19.32-5.17,14.06-7.55,21.47-21.4,20.32-38ZM169.75,88.28c0-5.65,4.6-10.25,10.25-10.25s10.25,4.6,10.25,10.25-4.6,10.25-10.25,10.25-10.25-4.6-10.25-10.25ZM122.34,172.95c-.08-9.94,4.76-19.65,14.39-28.85l42.14-40.14.02-.02c.3-.27.73-.75,1.1-.75s.73.39,1.13.75l.02.02,17.21,16.4-38.26,36.46c-2.16,2.07-3.39,4.84-3.47,7.82-.07,3,1.03,5.83,3.09,7.99,2.19,2.31,5.14,3.47,8.1,3.47,2.78,0,5.55-1.03,7.71-3.09l39.05-37.2,8.7,8.29c9.64,9.19,14.48,18.9,14.39,28.85-.12,13.53-9.29,25.08-17.27,32.62h-80.75c-8-7.54-17.15-19.09-17.29-32.62ZM135.78,211.05h88.44c3.15,0,5.72,2.56,5.72,5.72s-2.56,5.72-5.72,5.72h-88.44c-3.15,0-5.72-2.56-5.72-5.72s2.56-5.72,5.72-5.72ZM142.49,272.89c-12.29,10.26-25.88,11.84-39.44,4.57-12.08-6.48-18.44-18.44-17.44-32.8,1.11-16.02,12.22-30.88,15.17-34.56l10.15-2.3.26,11.21c-2.47,3.21-11.14,15.21-11.93,26.59-.63,9.02,2.93,15.86,10.27,19.8,8.68,4.65,16.14,3.73,24.2-3.01,4.11-3.44,6.87-7.6,8.73-11.55h14.73c-2.34,6.94-6.66,15.34-14.69,22.04ZM120.27,245.37l.53-3.64c1.14-7.85,7.99-13.77,15.93-13.77h86.6c7.99,0,14.85,5.97,15.94,13.88l.49,3.53h-119.49ZM256.95,277.45c-13.56,7.27-27.16,5.7-39.44-4.57-8.03-6.71-12.36-15.11-14.69-22.04h14.73c1.86,3.95,4.62,8.11,8.73,11.55,8.06,6.74,15.53,7.66,24.2,3.01,7.34-3.94,10.89-10.79,10.27-19.8-.79-11.38-9.46-23.39-11.93-26.59l.26-11.21,10.15,2.3c2.94,3.68,14.06,18.53,15.17,34.56,1,14.36-5.36,26.32-17.44,32.8Z"/><path class="cls-1" d="M135.78,222.49h88.44c3.15,0,5.72-2.56,5.72-5.72s-2.56-5.72-5.72-5.72h-88.44c-3.15,0-5.72,2.56-5.72,5.72s2.56,5.72,5.72,5.72Z"/><path class="cls-1" d="M239.75,245.37l-.49-3.53c-1.1-7.91-7.95-13.88-15.94-13.88h-86.6c-7.94,0-14.78,5.92-15.93,13.77l-.53,3.64h119.49Z"/><path class="cls-1" d="M139.63,205.57h80.75c7.99-7.54,17.15-19.09,17.27-32.62.1-9.94-4.75-19.65-14.39-28.85l-8.7-8.29-39.05,37.2c-2.16,2.07-4.94,3.09-7.71,3.09-2.95,0-5.91-1.16-8.1-3.47-2.07-2.16-3.16-4.99-3.09-7.99.08-2.98,1.31-5.76,3.47-7.82l38.26-36.46-17.21-16.4-.02-.02c-.4-.36-.75-.75-1.13-.75s-.8.48-1.1.75l-.02.02-42.14,40.14c-9.63,9.19-14.47,18.9-14.39,28.85.14,13.53,9.29,25.08,17.29,32.62Z"/><path class="cls-1" d="M190.25,88.28c0-5.65-4.6-10.25-10.25-10.25s-10.25,4.6-10.25,10.25,4.6,10.25,10.25,10.25,10.25-4.6,10.25-10.25Z"/></svg>