<?xml version="1.0" encoding="UTF-8"?><svg id="Layer_1" xmlns="http://www.w3.org/2000/svg" viewBox="0 0 360 360"><path d="M180,102.5c6.84,0,12.4-5.56,12.4-12.4s-5.56-12.4-12.4-12.4-12.4,5.56-12.4,12.4,5.56,12.4,12.4,12.4Z"/><path d="M229.72,149.57h16.74c-10.83-26.05-36.54-44.43-66.46-44.43s-55.63,18.37-66.46,44.43h16.74l-3.01,4.5c-1.62,2.42-2.47,5.23-2.47,8.15,0,8.1,6.59,14.69,14.69,14.69s14.69-6.59,14.69-14.69c0-2.92-.85-5.73-2.47-8.15l-3.01-4.5h4.48l26.82-19.4,26.82,19.4h4.47l-3,4.5c-1.62,2.42-2.47,5.24-2.47,8.15,0,8.1,6.59,14.69,14.69,14.69s14.69-6.59,14.69-14.69c0-2.92-.85-5.73-2.47-8.15l-3.01-4.5Z"/><path d="M237.42,254.81h-114.79c-10.86,0-20.25,8.99-21.84,20.91l-.87,6.57h160.17l-.81-6.4c-1.52-12.02-10.92-21.08-21.86-21.08Z"/><path d="M246.97,216.07c0-3.33-2.75-6.04-6.14-6.04h-121.68c-3.38,0-6.14,2.71-6.14,6.04s2.75,6.04,6.14,6.04h121.68c3.38,0,6.14-2.71,6.14-6.04Z"/><path d="M239.8,155.35c.78,2.19,1.18,4.5,1.18,6.87,0,11.29-9.18,20.47-20.47,20.47s-20.47-9.18-20.47-20.47c0-3.12.7-6.16,2.05-8.93l-22.09-15.98-22.09,15.98c1.35,2.77,2.05,5.81,2.05,8.93,0,11.29-9.18,20.47-20.47,20.47s-20.47-9.18-20.47-20.47c0-2.36.4-4.68,1.18-6.87h-37.94l2.2,22.8c1.43,14.88,13.79,26.09,28.73,26.09h133.63c14.95,0,27.31-11.23,28.73-26.11l2.18-22.79h-37.94Z"/><rect x="121.37" y="228.71" width="117.27" height="19.49"/></svg>