<?xml version="1.0" encoding="UTF-8"?><svg id="Layer_1" xmlns="http://www.w3.org/2000/svg" viewBox="0 0 360 360"><path d="M159.04,252.35h-21.08c-1.78,3.45-4.27,6.99-7.83,9.96-7.53,6.3-14.17,7.14-22.21,2.83-6.74-3.62-9.86-9.7-9.28-18.07.74-10.66,9.18-23.02,12.44-26.96l-.37-15.88-14.64,3.31c-1.77,2.13-15.65,19.33-16.95,38.17-1.11,16.04,6.01,29.4,19.55,36.66,6.21,3.33,12.49,5.02,18.67,5.02,8.81,0,17.33-3.39,25.34-10.08,9.12-7.62,13.88-17.23,16.37-24.98Z"/><path d="M280.88,245.73c-1.3-18.84-15.18-36.04-16.95-38.17l-14.64-3.31-.36,15.88c3.25,3.94,11.7,16.29,12.44,26.96.58,8.37-2.54,14.45-9.28,18.07-8.04,4.31-14.68,3.46-22.21-2.83-3.56-2.98-6.06-6.51-7.83-9.96h-21.08c2.49,7.75,7.25,17.36,16.37,24.98,8,6.69,16.53,10.08,25.34,10.08,6.18,0,12.46-1.69,18.67-5.02,13.54-7.26,20.66-20.63,19.55-36.66Z"/><path d="M226.01,222.85c3.28,0,5.95-2.67,5.95-5.95s-2.67-5.95-5.95-5.95h-92.02c-3.28,0-5.95,2.67-5.95,5.95s2.67,5.95,5.95,5.95h92.02Z"/><path d="M242.17,246.66l-.51-3.67c-1.14-8.23-8.27-14.45-16.59-14.45h-90.1c-8.26,0-15.38,6.16-16.57,14.33l-.55,3.79h124.32Z"/><path d="M137.99,205.26h84.02c8.33-7.84,17.85-19.88,17.97-33.96.1-10.35-4.94-20.45-14.96-30l-12.74-12.27s-40.55,38.65-40.57,38.67c-2.77,2.64-7.23,3.74-10.75,2.02-1.13-.56-2.14-1.38-2.88-2.41-2.76-3.8-.93-8.8,2.17-11.75l39.86-37.98s-18.94-18.06-18.95-18.07c-.32-.3-.77-.87-1.17-.87s-.8.54-1.15.88l-43.86,41.78c-10.03,9.55-15.07,19.65-14.97,30,.13,14.07,9.66,26.11,17.97,33.96Z"/><path d="M169.33,83.25c0,5.88,4.78,10.66,10.67,10.66s10.66-4.78,10.66-10.66-4.78-10.66-10.66-10.66-10.67,4.78-10.67,10.66Z"/></svg>