<?xml version="1.0" encoding="UTF-8"?><svg id="Layer_1" xmlns="http://www.w3.org/2000/svg" viewBox="0 0 360 360"><path d="M258.64,257.01H80.43c-3.35,0-6.08,3.06-6.08,6.81s2.73,6.81,6.08,6.81h178.21c3.35,0,6.08-3.06,6.08-6.81s-2.73-6.81-6.08-6.81Z"/><path d="M230.09,147.59c0,6.01-4.89,10.9-10.91,10.9s-10.9-4.89-10.9-10.9,4.89-10.91,10.9-10.91,10.91,4.89,10.91,10.91Z"/><path d="M169.54,89.37v.06c-28.02,1.18-55.46,22.01-55.46,66.93v94.09h137.29c-3.55-7.86-11.61-15.22-22.61-15.75-19.32-.94-26.48-11.19-27.46-28.88l-1.38-14.38c-14.33-3.15-18.42-8.24-21.43-11.26-7.65-7.64-11.87-17.81-11.87-28.65h5.83c0,9.28,3.61,17.99,10.16,24.53,6.55,6.56,17.06,11.17,26.34,11.17h.4l1.26,12.32c.55,12.46,11.62,21.29,23.97,21.29l22.53-.5v-110.62h8.19c11.24,0,20.35-9.11,20.35-20.35h-116.11ZM219.18,164.32c-9.22,0-16.73-7.51-16.73-16.73s7.51-16.74,16.73-16.74,16.74,7.51,16.74,16.74-7.51,16.73-16.74,16.73ZM247.36,210.14h-4.74c-2.61,0-4.73-2.12-4.73-4.74v-3.8c0-2.61,2.12-4.73,4.73-4.73s4.74,2.12,4.74,4.73v8.54Z"/><path d="M230.09,147.59c0,6.01-4.89,10.9-10.91,10.9s-10.9-4.89-10.9-10.9,4.89-10.91,10.9-10.91,10.91,4.89,10.91,10.91Z"/><path d="M108.26,156.36c0-31.11,13.83-55.41,35.78-66.39-32.11,4.25-56.98,31.79-56.98,65.04v95.44h21.21v-94.09Z"/></svg>