<?xml version="1.0" encoding="UTF-8"?><svg id="Layer_1" xmlns="http://www.w3.org/2000/svg" viewBox="0 0 360 360"><defs><style>.cls-1{fill:#fff;}</style></defs><path class="cls-1" d="M112.48,157.79c0-29.24,13-52.06,33.62-62.39-30.18,3.99-53.54,29.87-53.54,61.12v91.74h19.93v-90.47Z"/><path class="cls-1" d="M133.72,253.73h-47.38c-3.15,0-5.72,2.56-5.72,5.72s2.56,5.72,5.72,5.72h167.45c3.15,0,5.72-2.56,5.72-5.72s-2.56-5.72-5.72-5.72h-120.07Z"/><path class="cls-1" d="M274.23,104.54c2.67-2.67,4.37-6.04,4.94-9.69h-109.1v.05c-26.32,1.11-52.11,20.68-52.11,62.89v90.46h129.72c-2.07-8.82-14.12-12.87-25.39-12.87-18.14,0-34.04-14.56-34.04-31.15l-.25-17.14c-3.46-1.79-6.68-4.09-9.5-6.92-7.19-7.18-11.15-16.74-11.15-26.92h5.47c0,8.72,3.39,16.91,9.55,23.05,6.15,6.16,14.34,9.55,23.06,9.55h2.74v11.01c0,11.6,9.44,21.04,21.04,21.04h23.17v-108.22h9.46c4.69,0,9.09-1.83,12.41-5.15ZM216.72,165.26c-8.67,0-15.72-7.05-15.72-15.72s7.05-15.72,15.72-15.72,15.72,7.05,15.72,15.72-7.05,15.72-15.72,15.72ZM243.19,208.32h-4.45c-2.46,0-4.45-1.99-4.45-4.45v-3.57c0-2.46,1.99-4.45,4.45-4.45s4.45,1.99,4.45,4.45v8.02Z"/><path class="cls-1" d="M216.72,139.29c-5.65,0-10.25,4.6-10.25,10.25s4.6,10.25,10.25,10.25,10.25-4.6,10.25-10.25-4.6-10.25-10.25-10.25Z"/><path d="M192.01,89.37h-21.95s-15.84,0-15.84,0c-37.02,0-67.14,30.12-67.14,67.14v91.74h-.75c-6.17,0-11.19,5.02-11.19,11.19s5.02,11.19,11.19,11.19h167.45c6.17,0,11.19-5.02,11.19-11.19s-5.02-11.19-11.19-11.19h-.54c-1.9-12.58-16.93-18.34-30.97-18.34-15.22,0-28.57-12-28.57-25.72l-.22-14.78c2.95.97,6.02,1.6,9.18,1.82v5.64c0,14.62,11.89,26.51,26.51,26.51h28.64v-108.22h3.99c6.15,0,11.93-2.4,16.28-6.75,4.35-4.35,6.75-10.14,6.75-16.3v-2.74h-92.83ZM252.35,217.9h-23.17c-11.6,0-21.04-9.44-21.04-21.04v-11.01h-2.74c-8.72,0-16.91-3.39-23.06-9.55-6.16-6.15-9.55-14.33-9.55-23.05h-5.47c0,10.18,3.96,19.75,11.15,26.92,2.83,2.83,6.04,5.13,9.5,6.92l.25,17.14c0,16.6,15.91,31.15,34.04,31.15,11.27,0,23.33,4.05,25.39,12.87H117.95v-90.46c0-42.21,25.79-61.78,52.11-62.89v-.05h109.1c-.57,3.65-2.27,7.03-4.94,9.69-3.32,3.32-7.73,5.15-12.41,5.15h-9.46v108.22ZM259.51,259.44c0,3.15-2.56,5.72-5.72,5.72H86.34c-3.15,0-5.72-2.56-5.72-5.72s2.56-5.72,5.72-5.72h167.45c3.15,0,5.72,2.56,5.72,5.72ZM92.56,156.52c0-31.25,23.37-57.12,53.54-61.12-20.62,10.33-33.62,33.15-33.62,62.39v90.47h-19.93v-91.74Z"/><path d="M216.72,133.82c-8.67,0-15.72,7.05-15.72,15.72s7.05,15.72,15.72,15.72,15.72-7.05,15.72-15.72-7.05-15.72-15.72-15.72ZM216.72,159.79c-5.65,0-10.25-4.6-10.25-10.25s4.6-10.25,10.25-10.25,10.25,4.6,10.25,10.25-4.6,10.25-10.25,10.25Z"/><path d="M238.74,195.85c-2.46,0-4.45,1.99-4.45,4.45v3.57c0,2.46,1.99,4.45,4.45,4.45h4.45v-8.02c0-2.46-1.99-4.45-4.45-4.45Z"/></svg>