<?xml version="1.0" encoding="UTF-8"?><svg id="Layer_1" xmlns="http://www.w3.org/2000/svg" viewBox="0 0 360 360"><defs><style>.cls-1{fill:#fff;}</style></defs><polygon class="cls-1" points="212.19 237 195.49 169.59 164.53 169.59 147.82 237 212.19 237"/><path class="cls-1" d="M153.09,122.65c0,14.84,12.07,26.92,26.92,26.92s26.92-12.07,26.92-26.92-12.07-26.92-26.92-26.92-26.92,12.07-26.92,26.92Z"/><path class="cls-1" d="M230.25,259.36c-.96-9.63-6.64-16.89-13.22-16.89h-74.01c-6.53,0-12.21,7.2-13.21,16.75l-.53,5.05h101.45l-.49-4.91Z"/><path d="M235.69,258.82c-1.22-12.28-8.67-21.26-17.86-21.77l-16.71-67.46h3.82c5.52,0,10.01-4.49,10.01-10.01s-4.49-10.01-10.01-10.01h-6.95c8.68-5.82,14.4-15.71,14.4-26.92,0-17.86-14.53-32.39-32.39-32.39s-32.39,14.53-32.39,32.39c0,11.21,5.72,21.1,14.4,26.92h-6.95c-5.52,0-10.01,4.49-10.01,10.01s4.49,10.01,10.01,10.01h3.82l-16.71,67.46c-9.1.53-16.53,9.43-17.8,21.6l-1.16,11.09h113.56l-1.09-10.92ZM129.82,259.22c1-9.55,6.68-16.75,13.21-16.75h74.01c6.58,0,12.26,7.26,13.22,16.89l.49,4.91h-101.45l.53-5.05ZM150.53,159.58c0-2.5,2.04-4.54,4.54-4.54h49.88c2.5,0,4.54,2.04,4.54,4.54s-2.04,4.54-4.54,4.54h-49.88c-2.5,0-4.54-2.04-4.54-4.54ZM206.93,122.65c0,14.84-12.07,26.92-26.92,26.92s-26.92-12.07-26.92-26.92,12.07-26.92,26.92-26.92,26.92,12.07,26.92,26.92ZM195.49,169.59l16.7,67.41h-64.37l16.7-67.41h30.96Z"/><path class="cls-1" d="M204.95,164.12c2.5,0,4.54-2.04,4.54-4.54s-2.04-4.54-4.54-4.54h-49.88c-2.5,0-4.54,2.04-4.54,4.54s2.04,4.54,4.54,4.54h49.88Z"/></svg>