<?xml version="1.0" encoding="UTF-8"?><svg id="Layer_1" xmlns="http://www.w3.org/2000/svg" viewBox="0 0 360 360"><path d="M253.82,147.89c0-2.82-1.94-5.18-4.55-5.85-.9.07-1.8.13-2.72.13H113.46c-.92,0-1.83-.06-2.73-.13-2.61.66-4.55,3.02-4.55,5.85,0,3.34,2.7,6.05,6.01,6.05h135.62c3.32,0,6.01-2.71,6.01-6.05Z"/><path d="M112.19,234.63h135.62c3.32,0,6.01-2.71,6.01-6.05s-2.7-6.05-6.01-6.05H112.19c-3.32,0-6.01,2.71-6.01,6.05s2.7,6.05,6.01,6.05Z"/><rect x="116.07" y="159.72" width="127.86" height="57.03"/><path d="M246.56,240.41H113.51c-12.84,0-23.93,10.53-25.78,24.5l-1.04,7.81h186.63l-.96-7.62c-1.78-14.08-12.87-24.7-25.81-24.7Z"/><path d="M251.77,87.27h-18.44c2.07,3.01,3.29,6.65,3.29,10.58,0,10.28-8.28,18.61-18.5,18.61s-18.5-8.33-18.5-18.61c0-3.93,1.22-7.58,3.29-10.58h-45.77c2.05,3,3.26,6.63,3.26,10.54,0,10.28-8.28,18.61-18.5,18.61s-18.5-8.33-18.5-18.61c0-3.92,1.21-7.55,3.26-10.54h-43.99l2.19,22.84c1.43,14.9,13.73,26.14,28.61,26.14h133.09c14.89,0,27.2-11.25,28.62-26.16l2.17-22.83h-25.57Z"/></svg>