<?xml version="1.0" encoding="UTF-8"?><svg id="Layer_1" xmlns="http://www.w3.org/2000/svg" viewBox="0 0 360 360"><defs><style>.cls-1{fill:#fff;}</style></defs><path class="cls-1" d="M115.94,144.83c-3.13,0-5.68,2.56-5.68,5.72,0,2.65,1.81,4.88,4.25,5.52h131c2.44-.64,4.25-2.87,4.25-5.52,0-3.15-2.55-5.72-5.68-5.72H115.94Z"/><path class="cls-1" d="M115.85,222.08c-3.09.05-5.59,2.59-5.59,5.71s2.55,5.72,5.68,5.72h128.13c3.13,0,5.68-2.56,5.68-5.72s-2.5-5.66-5.59-5.71H115.85Z"/><polygon class="cls-1" points="240.4 161.54 119.6 161.54 119.6 177.17 119.6 179.96 119.6 197.33 119.6 200.07 119.6 216.5 240.4 216.5 240.4 200.07 240.4 197.33 240.4 179.96 240.4 177.17 240.4 161.54"/><path class="cls-1" d="M242.88,238.98h-125.7c-12.14,0-22.61,9.11-24.36,21.19l-.98,6.76h176.33l-.91-6.59c-1.68-12.18-12.16-21.36-24.38-21.36Z"/><path class="cls-1" d="M271.97,93.07h-35.7c.73,2.07,1.11,4.26,1.11,6.5,0,10.68-8.64,19.38-19.26,19.38s-19.26-8.69-19.26-19.38c0-2.24.38-4.43,1.11-6.5h-39.94c.73,2.07,1.11,4.26,1.11,6.5,0,10.68-8.64,19.38-19.26,19.38s-19.26-8.69-19.26-19.38c0-2.24.38-4.43,1.11-6.5h-35.7l2.07,21.58c1.35,14.08,12.97,24.7,27.03,24.7h125.74c14.07,0,25.7-10.62,27.04-24.71l2.05-21.57Z"/><path d="M275.33,115.16l2.62-27.56h-51.16l2.83,4.26c1.52,2.29,2.33,4.96,2.33,7.71,0,7.67-6.2,13.91-13.82,13.91s-13.82-6.24-13.82-13.91c0-2.76.8-5.43,2.32-7.71l2.83-4.26h-58.9l2.83,4.26c1.52,2.29,2.32,4.95,2.32,7.71,0,7.67-6.2,13.91-13.82,13.91s-13.82-6.24-13.82-13.91c0-2.76.8-5.43,2.32-7.71l2.83-4.26h-51.17l2.64,27.58c1.3,13.51,10.48,24.36,22.74,28.17-1.63,1.95-2.61,4.45-2.61,7.19,0,5.56,4.06,10.17,9.35,11.03v55.19c-5.29.86-9.35,5.47-9.35,11.03,0,2.81,1.04,5.37,2.74,7.34-10.42,3.59-18.46,12.83-20.12,24.25l-1.89,13.02h188.87l-1.77-12.81c-1.59-11.55-9.67-20.89-20.19-24.48,1.69-1.96,2.72-4.52,2.72-7.31,0-5.56-4.06-10.17-9.35-11.03v-55.19c5.29-.86,9.35-5.47,9.35-11.03,0-2.73-.98-5.24-2.61-7.18,12.27-3.8,21.46-14.67,22.75-28.2ZM244.07,144.83c3.13,0,5.68,2.56,5.68,5.72,0,2.65-1.81,4.88-4.25,5.52H114.5c-2.44-.64-4.25-2.87-4.25-5.52,0-3.15,2.55-5.72,5.68-5.72h128.13ZM240.4,179.96v36.54h-120.8v-54.96h120.8v18.42ZM249.75,227.79c0,3.15-2.55,5.72-5.68,5.72H115.94c-3.13,0-5.68-2.56-5.68-5.72s2.5-5.66,5.59-5.71h128.3c3.09.05,5.59,2.59,5.59,5.71ZM268.18,266.93H91.85l.98-6.76c1.75-12.08,12.22-21.19,24.36-21.19h125.7c12.22,0,22.7,9.18,24.38,21.36l.91,6.59ZM242.88,139.36h-125.74c-14.06,0-25.68-10.62-27.03-24.7l-2.07-21.58h35.7c-.73,2.07-1.11,4.26-1.11,6.5,0,10.68,8.64,19.38,19.26,19.38s19.26-8.69,19.26-19.38c0-2.24-.38-4.43-1.11-6.5h39.94c-.73,2.07-1.11,4.26-1.11,6.5,0,10.68,8.64,19.38,19.26,19.38s19.26-8.69,19.26-19.38c0-2.23-.38-4.43-1.11-6.5h35.7l-2.05,21.57c-1.34,14.09-12.96,24.71-27.04,24.71Z"/></svg>