<?xml version="1.0" encoding="UTF-8"?><svg id="Layer_1" xmlns="http://www.w3.org/2000/svg" viewBox="0 0 360 360"><defs><style>.cls-1{fill:#fff;}</style></defs><path class="cls-1" d="M119.07,239.52v18.55c1.11-.13,2.23-.2,3.37-.2h115.18c1.12,0,2.22.07,3.31.19v-18.55h-121.86Z"/><path class="cls-1" d="M237.62,263.35h-115.18c-11.02,0-20.51,7.53-22.09,17.5l-.81,5.17h160.95l-.75-5.03c-1.51-10.06-11.02-17.64-22.11-17.64Z"/><path class="cls-1" d="M119.43,139.17c-3.21,4.9-2.7,11.71,1.51,20.24,12.73,25.75,24.65,47.16,30.75,57.86h25.57v-88.72h-23.8v.04c-.27-.01-26.34-1.15-34.03,10.58Z"/><path class="cls-1" d="M121.3,217.27h24.1c-6.47-11.44-17.57-31.59-29.36-55.43-5.14-10.39-5.54-19.03-1.18-25.67,2.16-3.29,5.32-5.76,8.92-7.61h-17.99c-6.89,0-13.24,3.27-17.9,9.2-5.8,7.38-7.85,17.53-5.5,27.14,1.08,4.43,3.09,8.53,5.82,11.86l33.1,40.52Z"/><path class="cls-1" d="M182.74,128.55v88.72h25.57c6.1-10.7,18.01-32.11,30.75-57.86,4.22-8.53,4.73-15.34,1.51-20.25-5.48-8.35-21.17-10.42-30.15-10.61h-2.81c-.38,0-.74.02-1.07.04v-.04h-23.81Z"/><path class="cls-1" d="M254.21,128.55h-17.99c3.6,1.85,6.76,4.32,8.92,7.61,4.36,6.64,3.96,15.28-1.18,25.67-11.79,23.84-22.88,43.99-29.36,55.43h24.55l32.74-40.59c2.65-3.28,4.61-7.31,5.69-11.64,2.4-9.68.36-19.85-5.44-27.26-4.66-5.95-11.02-9.23-17.93-9.23Z"/><path d="M276.44,134.41c-5.63-7.2-13.74-11.33-22.23-11.33h-44.42c-.76,0-1.42,0-1.96,0h-16.52v-12.46c0-1.34,1.09-2.43,2.43-2.43h13.44v-22.62h-13.44c-1.34,0-2.43-1.09-2.43-2.43v-14.63h-22.62v14.63c0,1.34-1.09,2.43-2.43,2.43h-13.44v22.62h13.44c1.34,0,2.43,1.09,2.43,2.43v12.46h-16.48c-.56,0-1.26-.01-2.07,0h-44.35c-8.6,0-16.49,4.01-22.2,11.29-6.82,8.69-9.26,20.59-6.51,31.82,1.27,5.22,3.66,10.07,6.89,14.03l30.97,37.91c-3.94,1.66-6.71,5.56-6.71,10.1v.34c0,4,2.16,7.49,5.37,9.41v21.27c-9.65,3.06-17.1,10.97-18.65,20.75l-1.81,11.49h173.7l-1.7-11.31c-1.49-9.9-8.99-17.9-18.74-20.96v-21.25c3.21-1.91,5.37-5.41,5.37-9.41v-.34c0-4.42-2.63-8.22-6.4-9.95l30.78-38.16c3.14-3.9,5.48-8.66,6.75-13.82,2.78-11.24.37-23.16-6.45-31.89ZM277.57,165.05c-1.07,4.33-3.04,8.35-5.69,11.64l-32.74,40.59h-24.55c6.47-11.44,17.57-31.59,29.36-55.43,5.14-10.39,5.54-19.03,1.18-25.67-2.16-3.3-5.32-5.76-8.92-7.61h17.99c6.9,0,13.27,3.28,17.93,9.23,5.8,7.41,7.84,17.58,5.44,27.26ZM240.93,239.52v18.55c-1.09-.12-2.19-.19-3.31-.19h-115.18c-1.14,0-2.26.07-3.37.2v-18.55h121.86ZM260.48,286.02H99.54l.81-5.17c1.57-9.98,11.07-17.5,22.09-17.5h115.18c11.09,0,20.6,7.59,22.11,17.64l.75,5.03ZM246.3,228.23v.34c0,3.03-2.46,5.49-5.49,5.49h-121.63c-3.03,0-5.49-2.46-5.49-5.49v-.34c0-3.03,2.46-5.49,5.49-5.49h121.63c3.03,0,5.49,2.46,5.49,5.49ZM87.89,137.75c4.65-5.93,11.01-9.2,17.9-9.2h17.99c-3.6,1.85-6.76,4.32-8.92,7.61-4.36,6.64-3.96,15.28,1.18,25.67,11.79,23.84,22.89,43.99,29.36,55.43h-24.1l-33.1-40.52c-2.72-3.33-4.73-7.43-5.82-11.86-2.35-9.61-.29-19.76,5.5-27.14ZM168.69,128.55h8.58v88.72h-25.57c-6.1-10.7-18.01-32.11-30.75-57.86-4.22-8.53-4.73-15.34-1.51-20.24,7.69-11.73,33.76-10.6,34.03-10.58v-.04h15.23ZM166.26,102.72h-7.97v-11.68h7.97c4.36,0,7.9-3.55,7.9-7.9v-9.16h11.68v9.16c0,4.36,3.54,7.9,7.9,7.9h7.97v11.68h-7.97c-4.36,0-7.9,3.54-7.9,7.9v12.46h-11.68v-12.46c0-4.36-3.54-7.9-7.9-7.9ZM206.54,128.59c.33-.02.69-.03,1.07-.04h2.81c8.98.2,24.67,2.27,30.15,10.61,3.22,4.9,2.71,11.71-1.51,20.25-12.73,25.75-24.65,47.16-30.75,57.86h-25.57v-88.72h23.8v.04Z"/><path class="cls-1" d="M185.84,123.08v-12.46c0-4.36,3.54-7.9,7.9-7.9h7.97v-11.68h-7.97c-4.36,0-7.9-3.55-7.9-7.9v-9.16h-11.68v9.16c0,4.36-3.54,7.9-7.9,7.9h-7.97v11.68h7.97c4.36,0,7.9,3.54,7.9,7.9v12.46h11.68Z"/><rect class="cls-1" x="113.7" y="222.74" width="132.6" height="11.31" rx="5.49" ry="5.49"/></svg>