<?xml version="1.0" encoding="UTF-8"?><svg id="Layer_1" xmlns="http://www.w3.org/2000/svg" viewBox="0 0 360 360"><defs><style>.cls-1{fill:#fff;}</style></defs><path class="cls-1" d="M190.25,93.43c0-5.65-4.6-10.25-10.25-10.25s-10.25,4.6-10.25,10.25,4.6,10.25,10.25,10.25,10.25-4.6,10.25-10.25Z"/><path class="cls-1" d="M132.93,151.2l-2.85,4.26c-1.53,2.29-2.34,4.96-2.34,7.71,0,7.67,6.24,13.91,13.91,13.91s13.91-6.24,13.91-13.91c0-2.76-.81-5.43-2.34-7.71l-2.84-4.26h4.24l25.38-18.36,25.38,18.36h4.23l-2.84,4.26c-1.53,2.29-2.34,4.96-2.34,7.71,0,7.67,6.24,13.91,13.91,13.91s13.91-6.24,13.91-13.91c0-2.76-.81-5.43-2.34-7.71l-2.84-4.26h15.84c-10.25-24.66-34.58-42.05-62.91-42.05s-52.66,17.39-62.91,42.05h15.84Z"/><path class="cls-1" d="M234.36,250.81h-108.65c-10.28,0-19.17,8.51-20.67,19.8l-.83,6.22h151.61l-.77-6.06c-1.44-11.38-10.33-19.96-20.69-19.96Z"/><path class="cls-1" d="M236.68,208.42h-113.35c-3.15,0-5.72,2.56-5.72,5.72s2.56,5.72,5.72,5.72h113.35c3.15,0,5.72-2.56,5.72-5.72s-2.56-5.72-5.72-5.72Z"/><path class="cls-1" d="M236.6,156.67c.74,2.07,1.12,4.26,1.12,6.5,0,10.68-8.69,19.38-19.38,19.38s-19.38-8.69-19.38-19.38c0-2.95.67-5.83,1.94-8.45l-20.91-15.13-20.91,15.13c1.28,2.62,1.94,5.5,1.94,8.45,0,10.68-8.69,19.38-19.38,19.38s-19.38-8.69-19.38-19.38c0-2.24.38-4.43,1.12-6.5h-35.91l2.08,21.58c1.36,14.08,13.05,24.7,27.19,24.7h126.49c14.15,0,25.85-10.63,27.2-24.71l2.07-21.57h-35.91Z"/><path d="M248.79,151.2c-9.27-24.4-31.16-42.64-57.66-46.68,2.84-2.85,4.59-6.77,4.59-11.09,0-8.67-7.05-15.72-15.72-15.72s-15.72,7.05-15.72,15.72c0,4.33,1.76,8.25,4.59,11.09-26.5,4.04-48.39,22.28-57.66,46.68h-29.75l2.66,27.58c1.52,15.73,13.79,27.86,29.18,29.46.08.17.15.34.23.5-.89,1.6-1.4,3.44-1.4,5.4,0,5.16,3.52,9.51,8.28,10.79v21.01c-10.66,2.4-19.2,11.9-20.81,23.95l-1.65,12.41h164.06l-1.55-12.22c-1.54-12.18-10.13-21.77-20.89-24.16v-20.99c4.76-1.28,8.28-5.63,8.28-10.79,0-1.96-.51-3.8-1.39-5.4.08-.16.15-.33.23-.5,15.41-1.59,27.69-13.73,29.2-29.48l2.64-27.56h-29.74ZM270.45,178.23c-1.35,14.09-13.04,24.71-27.2,24.71h-126.49c-14.15,0-25.84-10.62-27.19-24.7l-2.08-21.58h35.91c-.74,2.07-1.12,4.26-1.12,6.5,0,10.68,8.69,19.38,19.38,19.38s19.38-8.69,19.38-19.38c0-2.95-.67-5.83-1.94-8.45l20.91-15.13,20.91,15.13c-1.28,2.62-1.94,5.5-1.94,8.45,0,10.68,8.69,19.38,19.38,19.38s19.38-8.69,19.38-19.38c0-2.24-.38-4.43-1.12-6.5h35.91l-2.07,21.57ZM242.39,214.14c0,3.15-2.56,5.72-5.72,5.72h-113.35c-3.15,0-5.72-2.56-5.72-5.72s2.56-5.72,5.72-5.72h113.35c3.15,0,5.72,2.56,5.72,5.72ZM255.81,276.82H104.21l.83-6.22c1.5-11.29,10.39-19.8,20.67-19.8h108.65c10.36,0,19.25,8.58,20.69,19.96l.77,6.06ZM234.11,225.32v20.01h-108.22v-20.01h108.22ZM169.75,93.43c0-5.65,4.6-10.25,10.25-10.25s10.25,4.6,10.25,10.25-4.6,10.25-10.25,10.25-10.25-4.6-10.25-10.25ZM180,109.15c28.32,0,52.66,17.39,62.91,42.05h-15.84l2.84,4.26c1.53,2.29,2.34,4.96,2.34,7.71,0,7.67-6.24,13.91-13.91,13.91s-13.91-6.24-13.91-13.91c0-2.76.81-5.43,2.34-7.71l2.84-4.26h-4.23l-25.38-18.36-25.38,18.36h-4.24l2.84,4.26c1.53,2.29,2.34,4.96,2.34,7.71,0,7.67-6.24,13.91-13.91,13.91s-13.91-6.24-13.91-13.91c0-2.76.81-5.43,2.34-7.71l2.85-4.26h-15.84c10.25-24.66,34.58-42.05,62.91-42.05Z"/><rect class="cls-1" x="125.89" y="225.32" width="108.22" height="20.01"/></svg>